<svg xmlns="http://www.w3.org/2000/svg" width="1735.259" height="1496.594" viewBox="0 0 1735.259 1496.594"><g transform="translate(-282 -127)"><path d="M500,0H683a500,500,0,0,1,500,500v683a0,0,0,0,1,0,0H0a0,0,0,0,1,0,0V500A500,500,0,0,1,500,0Z" transform="translate(834.259 440.594)" fill="#ffdab8"/><g transform="translate(282 127)"><circle cx="135.241" cy="135.241" r="135.241" transform="translate(0 163.579)" fill="#ff6584"/><path d="M1029.309,766.9a245.217,245.217,0,0,1-11.455,67.785c-.16.509-.327,1.011-.494,1.52H974.608c.046-.456.091-.965.137-1.52,2.85-32.768,19.284-232.2-.365-266.306C976.1,571.151,1032.611,662.788,1029.309,766.9Z" transform="translate(539.727 401.991)" fill="#45a207"/><path d="M1017.889,780.83c-.357.509-.73,1.018-1.11,1.52H984.711c.243-.433.525-.943.851-1.52,5.3-9.562,20.979-38.149,35.534-67.785,15.643-31.848,29.993-64.9,28.785-76.868C1050.261,638.874,1061.082,721.133,1017.889,780.83Z" transform="translate(547.935 455.85)" fill="#45a207"/><rect width="1229.217" height="4.021" transform="translate(455.365 1235.288)" fill="#45a207"/><path d="M822.844,873.2l5.971-49.263L997.5,780.648,978.1,722.428c13.518-38.774,37.251-57.782,80.612-38.813l74.586,46.334a47.613,47.613,0,0,1,22.419,43.014h0a47.577,47.577,0,0,1-27.088,40.438C1045.128,852.979,938.708,868.124,822.844,873.2Z" transform="translate(419.335 487.645)" fill="#ffb8b8"/><path d="M884.649,838.435,832.4,830.971l-48.87,9.973a21.108,21.108,0,0,1-25.31-19.8h0a21.107,21.107,0,0,1,8.388-17.737l76.579-57.7a34.573,34.573,0,0,1,44.785,2.709l19.069,18.362c-13.646,8.465-23.792,21.167-29.856,38.813Q896.857,816.406,884.649,838.435Z" transform="translate(367.979 537.341)" fill="#2f2e41"/><circle cx="48.32" cy="48.32" r="48.32" transform="translate(1254.21 761.929)" fill="#ffb8b8"/><path d="M946.463,563.976,838.234,609.507c8.8-44.165,13.18-84.4,0-108.976l69.416-8.211C904.2,511.21,921.767,536.506,946.463,563.976Z" transform="translate(431.562 341.56)" fill="#ffb8b8"/><path d="M828.721,935.379l-40.306-2.986C763.722,829.427,751.08,732.1,756.6,643.281a50.24,50.24,0,0,1,51.235-47.213h0a50.173,50.173,0,0,1,33.447,13.814l52.123,49.6a214.5,214.5,0,0,1,52.812,78.632c14.762,38.663,9.463,60.337-25.778,56.656a86.962,86.962,0,0,1-56.624-30.1l-38.079-44.254Z" transform="translate(365.688 423.976)" fill="#ffb8b8"/><path d="M793.1,920.722h0a34.484,34.484,0,0,1-30.4-45.538l7.867-23.076,5.971-58.22c9.2-18.77,22.225-15.962,37.321-1.493,9.6-.942,11.657-10.539,10.45-23.885l30.263,40.739a24.286,24.286,0,0,1,2.6,24.557l-30.458,66.81A34.483,34.483,0,0,1,793.1,920.722Z" transform="translate(370.093 560.987)" fill="#2f2e41"/><path d="M1130.1,760.05c-55.234,31.349-72.546,32.259-127.636,54.488l-47.77-26.871c-56.1,20.745-95.458-7.693-138.086-50.009,27.9-46.464,15.558-106.843,32.842-105.99L1056.2,696.605,1065.16,719Z" transform="translate(414.378 452.261)" fill="#2f2e41"/><path d="M1071,803.728c-73,31.6-151.607-1.857-218.7-75.387L807.877,548.93A14.973,14.973,0,0,1,819.411,530.4l51.55-10.31L896.338,560.4l50.756-44.785,53.9,17.622a41.616,41.616,0,0,1,28.054,32.338Z" transform="translate(407.045 360.066)" fill="#3327f5"/><path d="M897.181,797.2h0a26.362,26.362,0,0,1-10.723-41.683l34.125-40.25L944.468,728.7l-12.3,50.143A26.362,26.362,0,0,1,897.181,797.2Z" transform="translate(464.906 518.688)" opacity="0.2"/><path d="M897.181,793.876h0a26.362,26.362,0,0,1-10.723-41.683l34.127-40.251,23.885,13.435-12.3,50.143a26.362,26.362,0,0,1-34.989,18.356Z" transform="translate(464.906 516.044)" fill="#ffb8b8"/><path d="M935.207,884.705l-35.829-23.885,52.249-138.832L932.22,526.429l17.7,11.065a82.722,82.722,0,0,1,37.192,53.525l28.7,139.927C1003.259,795.443,982.326,852.189,935.207,884.705Z" transform="translate(480.14 368.658)" fill="#3327f5"/><path d="M776.661,555.922l17.914,89.57-14.734,52.384Z" transform="translate(617.039 475.759)" opacity="0.2"/><path d="M832.071,509.893s-27.845-91.129,57.257-72.017c13.2,2.964,24.6,10.638,33.676,20.674a8.2,8.2,0,0,0,6.411,2.619c13.594,0,21.992,48.579-5.2,69.942,0,0,5.548-28.747-4.536-38.542a21.634,21.634,0,0,1-4.488-5.779c-6.564-13.24-28.626-17.586-43.843-16.458-7.768.575-8.447,14.12-17.047,12.228C834.734,478.254,828.487,500.922,832.071,509.893Z" transform="translate(423.205 296.212)" fill="#2f2e41"/><path d="M907.587,553.888l-.563,4.126-3.478,25.459-5.7,41.694-1.426,10.439a3.325,3.325,0,0,1-3.3,2.876H855.153a3.326,3.326,0,0,1-3.3-2.868l-1.45-10.447-5.791-41.694L841.077,558l-.569-4.1a3.326,3.326,0,0,1,3.293-3.784H904.29a3.327,3.327,0,0,1,3.3,3.776Z" transform="translate(433.344 387.473)" fill="#e6e6e6"/><path d="M715.416,497.33h52.67a3.326,3.326,0,0,1,3.326,3.326v4.394a3.326,3.326,0,0,1-3.326,3.326h-52.67a3.326,3.326,0,0,1-3.326-3.326v-4.393a3.326,3.326,0,0,1,3.326-3.327Z" transform="translate(565.739 429.209)" fill="#3f3d56"/><path d="M915.823,558.08a352.067,352.067,0,0,1-76.4,0,3.326,3.326,0,0,1-3.326-3.326h0V550.36a3.326,3.326,0,0,1,3.326-3.326,313.028,313.028,0,0,0,76.4,0,3.326,3.326,0,0,1,3.326,3.326v4.395A3.326,3.326,0,0,1,915.823,558.08Z" transform="translate(429.865 385.029)" fill="#3f3d56"/><circle cx="14.356" cy="14.356" r="14.356" transform="translate(1291.591 965.439)" fill="#fff"/><path d="M916,600.929h0a26.362,26.362,0,0,1-32.374,28.36L832.311,616.97l1.227-27.377,50.3-11.623A26.362,26.362,0,0,1,916,600.93Z" transform="translate(426.857 409.069)" fill="#ffb8b8"/><path d="M917.23,665.581l-138.477,3.462a34.395,34.395,0,0,1-34.909-39.249h0A34.394,34.394,0,0,1,754.4,609.54l65.2-60.993a87.065,87.065,0,0,1,43.434-21.993l22.851-4.284,13.435,101.512-77.627-8.957,91.062,10.45Z" transform="translate(356.297 365.354)" fill="#3327f5"/><path d="M900.417,778.321H546.891a11.854,11.854,0,0,1-11.854-11.854h0q192.23-22.341,377.233,0h0a11.854,11.854,0,0,1-11.853,11.854Z" transform="translate(190.679 550.488)" fill="#2f2e41"/><path d="M912.269,873.356l-377.231-.7,43.72-73.564.209-.349V636.619a14.984,14.984,0,0,1,14.986-14.985H851.264a14.984,14.984,0,0,1,14.985,14.986V799.861Z" transform="translate(190.68 444.297)" fill="#3f3d56"/><path d="M569.839,627.463a4.887,4.887,0,0,0-4.881,4.881V780.169a4.887,4.887,0,0,0,4.881,4.881H829.927a4.887,4.887,0,0,0,4.881-4.881V632.344a4.887,4.887,0,0,0-4.881-4.881Z" transform="translate(214.451 448.928)" fill="#fff"/><path d="M575.521,726.161a2.1,2.1,0,0,0-1.9,1.218l-13.472,29.286a2.092,2.092,0,0,0,1.9,2.966h283.3a2.091,2.091,0,0,0,1.871-3.027l-14.643-29.286a2.081,2.081,0,0,0-1.871-1.156Z" transform="translate(210.478 527.341)" fill="#2f2e41"/><circle cx="3.138" cy="3.138" r="3.138" transform="translate(910.151 1067.673)" fill="#fff"/><path d="M626.469,747.921a2.1,2.1,0,0,0-2.02,1.548L621.07,762.02a2.092,2.092,0,0,0,2.02,2.636h64.264a2.091,2.091,0,0,0,1.976-2.776l-4.344-12.551a2.093,2.093,0,0,0-1.977-1.407Z" transform="translate(258.974 544.629)" fill="#2f2e41"/><path d="M716.272,672.346v2.79H428.781l.215-.35v-2.441Z" transform="translate(340.657 568.255)" fill="#2f2e41"/><path d="M491.6,779.785a314.3,314.3,0,0,0,14.682,86.881c.2.653.419,1.3.633,1.948h54.79c-.058-.584-.117-1.237-.175-1.948-3.653-42-24.716-297.616.468-341.327C559.8,528.883,487.354,646.335,491.6,779.785Z" transform="translate(156.028 367.792)" fill="#45a207"/><path d="M512.8,797.633c.458.653.935,1.305,1.422,1.948h41.1c-.312-.555-.672-1.208-1.091-1.948-6.79-12.256-26.888-48.9-45.545-86.881-20.05-40.82-38.443-83.189-36.894-98.523C471.319,615.687,457.446,721.118,512.8,797.633Z" transform="translate(138.939 436.824)" fill="#45a207"/><path d="M560.21,229.783l22.276-17.816c-17.305-1.909-24.415,7.529-27.325,15-13.519-5.614-28.237,1.743-28.237,1.743l44.57,16.18a33.727,33.727,0,0,0-11.283-15.106Z" transform="translate(184.233 118.627)" fill="#3f3d56"/><path d="M934.094,178.678l22.276-17.816c-17.305-1.909-24.415,7.529-27.325,15-13.519-5.614-28.237,1.743-28.237,1.743l44.57,16.18A33.727,33.727,0,0,0,934.094,178.678Z" transform="translate(481.276 78.026)" fill="#3f3d56"/><path d="M862.613,310.433l22.276-17.816c-17.3-1.909-24.415,7.529-27.325,15-13.519-5.614-28.237,1.743-28.237,1.743l44.57,16.18a33.728,33.728,0,0,0-11.283-15.106Z" transform="translate(424.486 182.702)" fill="#3f3d56"/><ellipse cx="201.129" cy="410.384" rx="201.129" ry="410.384" transform="translate(69.106 71.377) rotate(-10.221)" fill="#e6e6e6"/><path d="M301.8,232.456q26.536,72.158,47.228,146.282,20.653,74.054,35.333,149.6,14.679,75.524,23.276,152.061,8.554,76.4,10.992,153.326,2.423,76.841-1.338,153.711-.463,9.418-1.02,18.83c-.378,6.427,9.622,6.406,10,0q4.533-77.112,2.844-154.416-1.7-76.861-9.546-153.422-7.867-76.785-21.8-152.793-13.938-75.975-33.938-150.669-19.988-74.611-45.965-147.443-3.169-8.88-6.427-17.729c-2.2-5.989-11.869-3.4-9.641,2.658Z" transform="translate(5.117 130.293)" fill="#3f3d56"/><path d="M344.15,394.373l44.3-98.354L400.93,268.3a5.153,5.153,0,0,0-1.793-6.84,5.038,5.038,0,0,0-6.84,1.793L348,361.605l-12.484,27.721a5.152,5.152,0,0,0,1.793,6.84,5.038,5.038,0,0,0,6.84-1.793Z" transform="translate(31.664 157.613)" fill="#3f3d56"/><path d="M405.616,394.248l-101-37.869L276.145,345.7A5.041,5.041,0,0,0,270,349.2a5.108,5.108,0,0,0,3.492,6.15l101,37.87,28.468,10.674a5.041,5.041,0,0,0,6.15-3.492,5.108,5.108,0,0,0-3.492-6.149Z" transform="translate(-20.015 224.941)" fill="#3f3d56"/><path d="M301.672,679.5s121.645-39.993,234.958,0" transform="translate(5.276 476.144)" fill="#e6e6e6"/><path d="M607.3,666.407c24.105-.251,48.207-.682,72.311-1.009q12.053-.164,24.108-.287c6.924-.072,6.942-10.839,0-10.767-24.105.251-48.207.682-72.311,1.009q-12.053.164-24.108.287C600.376,655.712,600.358,666.479,607.3,666.407Z" transform="translate(243.96 470.283)" fill="#6c63ff"/><path d="M607.3,680.407l97.423-1.009,27.708-.287c6.924-.072,6.942-10.839,0-10.767l-97.423,1.009-27.708.287C600.376,669.712,600.358,680.479,607.3,680.407Z" transform="translate(243.96 481.406)" fill="#6c63ff"/><path d="M607.3,694.407l97.423-1.009,27.708-.287c6.924-.072,6.942-10.839,0-10.767l-97.423,1.009-27.708.287C600.376,683.712,600.358,694.479,607.3,694.407Z" transform="translate(243.96 492.529)" fill="#6c63ff"/></g></g></svg>