<svg xmlns="http://www.w3.org/2000/svg" width="1953.283" height="1490.082" viewBox="0 0 1953.283 1490.082"><g transform="translate(0)"><path d="M675.7,285.919a303.874,303.874,0,0,0-44.5,88.168,537.962,537.962,0,0,0-19.777,84.531c-2.105-.829-4.179-1.723-6.221-2.711a92.17,92.17,0,0,1,40.224-175.092,91.214,91.214,0,0,1,23.222,2.967C671.046,284.388,673.406,285.089,675.7,285.919Z" transform="translate(274.303 -75.451)" fill="#ff6584"/><path d="M324.973,697.251c6.339-50.97,37.927-101.19,86.537-117.777a236.648,236.648,0,0,0,.012,162.475c7.469,20.2,17.881,41.9,10.855,62.263-4.372,12.671-15.066,22.365-27.02,28.426s-25.222,8.95-38.324,11.782l-2.578,2.132C333.656,799.588,318.635,748.222,324.973,697.251Z" transform="translate(-228.841 578.571)" fill="#45a207"/><path d="M391.543,581.18a202.271,202.271,0,0,0-50.285,113.837,87.1,87.1,0,0,0,.991,27.273,49.958,49.958,0,0,0,12.425,23.172c5.6,6.153,12.042,11.8,16.049,19.206a30.589,30.589,0,0,1,1.494,24.972c-3.538,10.147-10.511,18.418-17.611,26.269-7.883,8.717-16.209,17.647-19.56,29.2-.406,1.4-2.555.688-2.15-.71,5.83-20.107,25.348-31.528,34.657-49.638,4.343-8.45,6.166-18.261,2.095-27.181-3.561-7.8-10.2-13.628-15.922-19.809a53.308,53.308,0,0,1-12.993-22.2,80.527,80.527,0,0,1-2.036-27.135A196.239,196.239,0,0,1,353.029,638.8a205.851,205.851,0,0,1,37.016-59.32c.968-1.084,2.459.621,1.5,1.7Z" transform="translate(-208.391 577.829)" fill="#fff"/><path d="M351.593,633.7a30.347,30.347,0,0,1-23.1-31.789,1.133,1.133,0,0,1,2.262.113A28.1,28.1,0,0,0,352.3,631.553c1.417.337.7,2.485-.71,2.15Z" transform="translate(-218.116 625.446)" fill="#fff"/><path d="M339.062,654.064a58.493,58.493,0,0,0,26.12-33.687c.411-1.4,2.56-.687,2.15.71a60.839,60.839,0,0,1-27.251,35c-1.255.745-2.267-1.281-1.018-2.022Z" transform="translate(-196.028 666.484)" fill="#fff"/><path d="M343.625,592.379a17.178,17.178,0,0,0,16.279-.826c1.245-.76,2.255,1.267,1.018,2.022a19.249,19.249,0,0,1-18.007.954,1.17,1.17,0,0,1-.72-1.43,1.137,1.137,0,0,1,1.43-.72Z" transform="translate(-188.021 604.656)" fill="#fff"/><path d="M539.2,611.734c-.764.5-1.528.994-2.293,1.509a226.22,226.22,0,0,0-28.925,22.583c-.707.63-1.414,1.28-2.1,1.93a238.486,238.486,0,0,0-51.795,70.9A231.619,231.619,0,0,0,441.4,741.481c-4.681,15.533-8.521,32.747-17.788,45.452a39.7,39.7,0,0,1-3.1,3.821h-83.74c-.19-.1-.382-.172-.573-.267l-3.343.153c.134-.592.286-1.2.421-1.8.077-.344.172-.688.248-1.032.057-.229.115-.459.153-.669.019-.076.038-.153.057-.21.038-.21.1-.4.134-.592q1.261-5.13,2.6-10.26c0-.019,0-.019.019-.038A340.536,340.536,0,0,1,365.148,700.8c.382-.707.764-1.433,1.185-2.14a220.98,220.98,0,0,1,19.851-30.11A195.442,195.442,0,0,1,399.2,653.671a162.474,162.474,0,0,1,40.656-30.455c30.034-15.857,64.806-21.933,96.9-12.246C537.576,611.218,538.377,611.466,539.2,611.734Z" transform="translate(-208.36 637.35)" fill="#45a207"/><path d="M538.745,609.913a202.272,202.272,0,0,0-108.687,60.619,87.109,87.109,0,0,0-15.63,22.373,49.957,49.957,0,0,0-4.03,25.982c.767,8.285,2.511,16.671,1.251,25a30.59,30.59,0,0,1-13.842,20.839c-8.934,5.972-19.481,8.378-29.877,10.372-11.543,2.214-23.567,4.331-33.2,11.541-1.167.874-2.454-.989-1.289-1.861C350.2,772.23,372.661,774.862,391,766.006c8.556-4.132,15.918-10.868,18.037-20.441,1.853-8.372.062-17.021-.787-25.4a53.31,53.31,0,0,1,2.994-25.552,80.524,80.524,0,0,1,14.712-22.891A196.237,196.237,0,0,1,473.3,632.733a205.849,205.849,0,0,1,65.269-25.077c1.425-.283,1.59,1.977.174,2.257Z" transform="translate(-208.093 640.234)" fill="#fff"/><path d="M370.872,651.274a30.347,30.347,0,0,1,.7-39.29c.966-1.09,2.705.36,1.738,1.452a28.1,28.1,0,0,0-.572,36.549c.929,1.122-.938,2.4-1.861,1.289Z" transform="translate(-140.174 648.919)" fill="#fff"/><path d="M357.854,649.033a58.492,58.492,0,0,0,41.137-11.171c1.17-.869,2.458.993,1.289,1.861a60.838,60.838,0,0,1-42.83,11.538c-1.451-.161-1.038-2.388.4-2.227Z" transform="translate(-156.491 705.939)" fill="#fff"/><path d="M384.82,613a17.177,17.177,0,0,0,13.5,9.141c1.452.143,1.038,2.369-.4,2.227a19.249,19.249,0,0,1-14.952-10.079,1.17,1.17,0,0,1,.286-1.575,1.138,1.138,0,0,1,1.575.286Z" transform="translate(-99.059 650.925)" fill="#fff"/><path d="M629.44,723.832c-34.8-37.78-52.7-94.343-33.94-142.156a236.649,236.649,0,0,0,123.987,105c20.245,7.359,43.529,13.436,54.526,31.959,6.843,11.525,7.328,25.951,4.227,38.99s-9.472,25.031-15.779,36.858l-.039,3.346C713.142,783.348,664.239,761.613,629.44,723.832Z" transform="translate(350.209 583.394)" fill="#45a207"/><path d="M592.195,582.479A202.269,202.269,0,0,0,646.56,694.425,87.1,87.1,0,0,0,668.011,711.3a49.954,49.954,0,0,0,25.712,5.5c8.315-.3,16.786-1.563,25.028.167a30.589,30.589,0,0,1,20.021,15c5.456,9.258,7.261,19.924,8.663,30.416,1.556,11.649,2.989,23.774,9.642,33.8.806,1.215-1.126,2.395-1.931,1.182-11.574-17.444-7.674-39.72-15.477-58.527-3.641-8.776-9.949-16.508-19.387-19.166-8.253-2.325-16.99-1.026-25.406-.654a53.31,53.31,0,0,1-25.341-4.436,80.529,80.529,0,0,1-22.021-15.984,196.241,196.241,0,0,1-36.242-49.48,205.856,205.856,0,0,1-21.34-66.585c-.2-1.439,2.063-1.475,2.263-.046Z" transform="translate(354.564 582.846)" fill="#fff"/><path d="M631.658,617.291a30.347,30.347,0,0,1-39.187-2.92c-1.033-1.026.513-2.68,1.548-1.653a28.1,28.1,0,0,0,36.458,2.641C631.649,614.5,632.824,616.432,631.658,617.291Z" transform="translate(359.405 650.662)" fill="#fff"/><path d="M627.333,653.876a58.491,58.491,0,0,0-8.823-41.7c-.8-1.217,1.13-2.4,1.931-1.181a60.839,60.839,0,0,1,9.093,43.415c-.243,1.439-2.443.9-2.2-.53Z" transform="translate(416.758 646.47)" fill="#fff"/><path d="M594.517,605.528a17.178,17.178,0,0,0,9.891-12.956c.225-1.441,2.424-.9,2.2.53a19.25,19.25,0,0,1-10.91,14.357,1.17,1.17,0,0,1-1.556-.375,1.137,1.137,0,0,1,.375-1.556Z" transform="translate(363.454 605.396)" fill="#fff"/><path d="M682.782,564.678c-.115.9-.23,1.808-.33,2.725a226.22,226.22,0,0,0-1.463,36.668c.024.947.063,1.907.114,2.851a238.491,238.491,0,0,0,20.625,85.348,231.605,231.605,0,0,0,16.847,30.895c8.827,13.611,19.48,27.667,23.186,42.95a39.763,39.763,0,0,1,.915,4.831l-54.124,63.9c-.2.083-.378.18-.574.264l-2.044,2.65c-.365-.485-.733-1-1.1-1.482-.213-.281-.414-.576-.627-.856-.138-.192-.276-.384-.412-.549-.046-.064-.092-.128-.124-.179-.136-.165-.244-.333-.365-.485q-3.1-4.278-6.15-8.614c-.015-.013-.015-.013-.017-.039a340.544,340.544,0,0,1-38.888-70.5c-.292-.749-.6-1.509-.867-2.287a220.979,220.979,0,0,1-10.146-34.608,195.243,195.243,0,0,1-2.947-19.547,162.458,162.458,0,0,1,3.039-50.707c7.312-33.167,25.15-63.627,53.287-81.859C681.34,565.584,682.048,565.131,682.782,564.678Z" transform="translate(428.162 546.171)" fill="#45a207"/><path d="M661.364,566.2a202.271,202.271,0,0,0-23.992,122.114,87.116,87.116,0,0,0,6.97,26.386,49.96,49.96,0,0,0,17.221,19.868c6.817,4.77,14.343,8.859,19.882,15.2A30.591,30.591,0,0,1,688.4,773.8c-1.217,10.677-6.2,20.28-11.4,29.5-5.771,10.239-11.927,20.782-12.652,32.793-.088,1.455-2.341,1.234-2.253-.219,1.261-20.9,17.786-36.334,22.88-56.049,2.377-9.2,2-19.17-3.94-26.975-5.19-6.825-12.948-11.049-19.892-15.818a53.31,53.31,0,0,1-17.562-18.8,80.52,80.52,0,0,1-7.958-26.021,196.234,196.234,0,0,1,.853-61.327,205.858,205.858,0,0,1,23.05-66.013c.706-1.27,2.536.064,1.835,1.326Z" transform="translate(450.27 545.479)" fill="#fff"/><path d="M654.322,617.676a30.347,30.347,0,0,1-29.531-25.925c-.207-1.442,2.024-1.831,2.231-.388a28.1,28.1,0,0,0,27.519,24.059c1.457.017,1.229,2.27-.219,2.253Z" transform="translate(430.899 602.62)" fill="#fff"/><path d="M641.452,644.29a58.491,58.491,0,0,0,18.064-38.61c.093-1.455,2.346-1.234,2.253.219a60.84,60.84,0,0,1-18.878,40.139c-1.061,1-2.493-.751-1.438-1.748Z" transform="translate(466.606 633.797)" fill="#fff"/><path d="M637.369,581.691a17.177,17.177,0,0,0,15.7-4.39c1.047-1.016,2.479.739,1.438,1.748a19.249,19.249,0,0,1-17.355,4.894,1.169,1.169,0,0,1-1.017-1.236,1.137,1.137,0,0,1,1.236-1.017Z" transform="translate(455.762 573.146)" fill="#fff"/><circle cx="55.796" cy="55.796" r="55.796" transform="translate(584.5 1116.534)" fill="#6c63ff"/><circle cx="20.755" cy="20.755" r="20.755" transform="translate(578.072 648.859)" fill="#6c63ff"/><circle cx="20.755" cy="20.755" r="20.755" transform="translate(292.654 880.503)" fill="#6c63ff"/><path d="M1835.46,216.435H302.411a8.6,8.6,0,0,0-8.581,8.581v50.5a8.611,8.611,0,0,0,8.581,8.613H1835.46a8.611,8.611,0,0,0,8.581-8.613v-50.5a8.6,8.6,0,0,0-8.581-8.581Z" transform="translate(-293.83 -216.435)" fill="#1c1c1c"/><circle cx="12.191" cy="12.191" r="12.191" transform="translate(37.65 19.181)" fill="#fff"/><circle cx="12.191" cy="12.191" r="12.191" transform="translate(83.925 19.181)" fill="#fff"/><circle cx="12.191" cy="12.191" r="12.191" transform="translate(130.201 19.181)" fill="#fff"/><path d="M802.207,221.165H748.9a3.94,3.94,0,0,0,0,7.879h53.3a3.939,3.939,0,1,0,0-7.879Z" transform="translate(694.096 -206.077)" fill="#fff"/><path d="M802.207,225.8H748.9a3.94,3.94,0,0,0,0,7.879h53.3a3.939,3.939,0,1,0,0-7.879Z" transform="translate(694.096 -195.916)" fill="#fff"/><path d="M802.218,230.445h-53.3a3.955,3.955,0,0,0,0,7.911h53.3a3.955,3.955,0,0,0,0-7.911Z" transform="translate(694.084 -185.755)" fill="#fff"/><path d="M317.3,354.463c-4.427.014-8.009,5.764-8,12.842.009,7.059,3.586,12.777,8,12.791H918.535c4.427-.014,8.009-5.764,8-12.842-.009-7.059-3.586-12.777-8-12.791Z" transform="translate(-259.962 85.828)" fill="#ff9200"/><path d="M317.3,377.746c-4.427.014-8.009,5.763-8,12.842.009,7.059,3.586,12.777,8,12.791H918.535c4.427-.014,8.009-5.764,8-12.842-.009-7.059-3.586-12.777-8-12.791Z" transform="translate(-259.962 136.814)" fill="#ff9200"/><path d="M317.3,400.746c-4.427.014-8.009,5.763-8,12.842.009,7.059,3.586,12.777,8,12.791H703.219c4.427-.014,8.009-5.763,8-12.842-.009-7.059-3.586-12.777-8-12.791Z" transform="translate(-259.962 187.182)" fill="#ff9200"/><path d="M298.243,659.7c.2-.462.434-.9.643-1.358C299.257,654.522,298.243,659.7,298.243,659.7Z" transform="translate(-284.166 748.209)" fill="#f2f2f2"/><path d="M406.766,890.086a156.68,156.68,0,0,0-22.753,1.645l-1.087.159a100.211,100.211,0,0,0-84.3,102.362l.288,9.18c.19,5.8.392,12.043.559,18.965a6.11,6.11,0,0,0,6.127,6.034H1524.381c85.93-.9,171.549-2.04,254.464-3.38a252.435,252.435,0,0,0,46.555-4.177c23.042-4.723,39.036-14.083,48.9-28.619h0c12.264-18.024,12.651-40.721,11.909-66.364-1.511-51.779-3.009-106.175-4.5-160.406-1.321-47.8-2.635-95.463-3.95-141.1-.813-27.083-2.62-50.988-16.548-69.258-15.1-19.759-42.627-29.774-81.83-29.774-.474,0-.944,0-1.424,0-122.86.757-244.595,73.912-302.919,182.037-6.716,12.451-12.974,25.78-19.027,38.674a534.126,534.126,0,0,1-29.223,56.346,184.2,184.2,0,0,1-19.3,26.058c-.474.567-1.016,1.174-1.589,1.751-1.312,1.48-2.682,2.906-4.019,4.177a125.57,125.57,0,0,1-24.619,19.382l-.863.5c-.649.4-1.354.8-2.058,1.171a112.372,112.372,0,0,1-15.2,7.037c-22.232,8.486-47.513,10.52-75.136,6.04a236.105,236.105,0,0,1-74.708-26.363c-25.579-14-49.522-31.453-72.677-48.331-10.171-7.417-20.691-15.083-31.2-22.348-1.975-1.368-3.917-2.7-5.889-4.04-12.831-8.66-24.464-15.812-35.564-21.865A224.349,224.349,0,0,0,979.21,718.4c-30.556-2.9-57.483,2.567-80.015,16.2a119.515,119.515,0,0,0-18.1,13.5c-26.687,24-43.14,59.417-59.048,93.671-19.79,42.605-40.255,86.665-80.664,109.505-46.629,26.379-114.69,15.42-162.844-3.638-15.139-5.994-30.26-12.887-44.884-19.557-5.906-2.695-11.812-5.386-17.731-8.028-11.622-5.2-21.134-9.177-29.935-12.538l-2.783-1.072c-1.548-.583-3.1-1.165-4.676-1.72a286.05,286.05,0,0,0-29.771-9.143l-2.268-.573c-4.547-1.037-8.8-1.9-12.968-2.626l-1.665-.286A154.984,154.984,0,0,0,406.766,890.086Z" transform="translate(-283.458 460.057)" fill="#767575"/><path d="M554.731,1280.706c-20.283-76.287,24.761-150.644,77.394-202.119,28.051-27.433,59.289-51.28,89.753-75.913a958.581,958.581,0,0,0,83.368-75.081c50.784-51.98,95.084-111.382,124.421-178.157,27.9-63.5,41.084-132.668,34.552-201.953-6.2-65.71-29.748-130.348-73.075-180.762q-8.1-9.423-17.038-18.064c-3.2-3.1-8.093,1.783-4.892,4.892,48.382,46.979,76.542,110.644,86.073,176.878,9.828,68.3-.3,137.939-25.84,201.8-27.209,68.027-70.476,128.73-120.652,181.7a889.993,889.993,0,0,1-80.49,74.625c-30.265,24.931-61.714,48.487-90.533,75.13-53.114,49.1-100.851,116.647-94.293,192.678a153.046,153.046,0,0,0,4.58,26.185,3.462,3.462,0,0,0,6.671-1.839Z" transform="translate(251.543 70.943)" fill="#767575"/><path d="M684.458,868.3a3.462,3.462,0,0,1-5.965,3.509Q666.579,851.377,656,830.244c-4.753-9.57-9.314-19.267-13.589-29.06a726.324,726.324,0,0,1-59.842-346.228,682.006,682.006,0,0,1,14-96.43c1.435-6.443,2.967-12.887,4.657-19.267,2.552-.415,5.04-.957,7.5-1.595-14.992,54.355-21.021,111.677-21.213,167.755a720.021,720.021,0,0,0,24.275,187.915A706.889,706.889,0,0,0,684.458,868.3Z" transform="translate(334.226 49.043)" fill="#767575"/><path d="M1078.866,814.8c-25.934,55.791-69.507,101.6-118.376,138.089-55.408,41.373-118.153,71.23-180.323,100.864-3.987,1.914-7.5-4.051-3.477-5.965,14.833-7.081,29.666-14.163,44.4-21.372,58.949-28.932,117.387-60.767,166.734-104.6,45.647-40.543,82.841-91.039,99.811-150.275,17.7-61.66,14.355-128.328-4.689-189.255a414.764,414.764,0,0,0-50.368-104.436q-10.718-16.221-22.68-31.548-8.708-11.149-17.991-21.851a596.176,596.176,0,0,0-65.775-64.595,377.543,377.543,0,0,0-80.7-53.27A230.4,230.4,0,0,0,749.7,283.433a171.936,171.936,0,0,0-89.348,23.6A202.088,202.088,0,0,0,611.1,348.251c-.925-2.329-1.946-4.625-3.094-6.858,24.37-26.954,54.77-48.135,90.146-58.183,65.36-18.565,134.357,3.222,189.51,39.267a507.914,507.914,0,0,1,75.057,61.182c8.581,8.326,16.938,16.906,24.977,25.742q14.546,15.886,27.784,32.887s.064.032.064.064q4.45,5.694,8.74,11.547c37.289,50.719,65.137,108.934,76.238,171.168C1111.881,688.705,1106.267,755.82,1078.866,814.8Z" transform="translate(394.182 -85.023)" fill="#767575"/><path d="M1125.086,793.854c-25.9,55.791-69.475,101.6-118.376,138.089-52.984,39.522-112.666,68.582-172.125,96.94-2.711,1.308-5.455,2.584-8.166,3.892a3.425,3.425,0,0,1-2.839.128,3.314,3.314,0,0,1-.67-6.093c2.3-1.117,4.625-2.2,6.922-3.286,3.955-1.914,7.879-3.8,11.834-5.678q12.871-6.125,25.678-12.409c58.917-28.9,117.387-60.767,166.7-104.6,45.679-40.543,82.873-91.039,99.843-150.275,17.672-61.66,14.323-128.3-4.721-189.223a397.863,397.863,0,0,0-29.219-69.125c-6.795-12.632-14.227-24.977-22.2-36.907a504.7,504.7,0,0,0-39.618-51.835,592.74,592.74,0,0,0-65.743-64.563,377.357,377.357,0,0,0-80.735-53.271,230.3,230.3,0,0,0-95.7-23.19,172.048,172.048,0,0,0-89.38,23.605,208.661,208.661,0,0,0-60.7,55.344,303.874,303.874,0,0,0-44.5,88.168A537.952,537.952,0,0,0,581.6,514.1a705.293,705.293,0,0,0-7.815,104.4,721.621,721.621,0,0,0,24.275,187.947,708.6,708.6,0,0,0,72.665,174.965,2.932,2.932,0,0,1,.223.447,3.464,3.464,0,0,1-6.188,3.03q-11.914-20.383-22.457-41.564a725.816,725.816,0,0,1-73.463-375.288q2.105-28.421,6.539-56.652,3.11-20,7.5-39.778a398.82,398.82,0,0,1,32.058-93.527,266.7,266.7,0,0,1,23.892-38.821c26.444-35.758,62.3-64.722,105.584-77,65.36-18.6,134.325,3.19,189.51,39.235a511.264,511.264,0,0,1,75.058,61.182,562.512,562.512,0,0,1,61.532,70.241,465.5,465.5,0,0,1,35.025,55.28s.064.032.064.064c6.22,11.579,11.93,23.414,17.034,35.5a374.2,374.2,0,0,1,24.115,80.321C1158.133,667.758,1152.519,734.841,1125.086,793.854Z" transform="translate(304.133 -130.935)" fill="#767575"/><path d="M677.287,544.618a131.839,131.839,0,0,0,83.477-30.472,127.933,127.933,0,0,0,44.2-79.074,130.569,130.569,0,0,0-2.556-52.37,3.462,3.462,0,0,0-6.671,1.839,124.425,124.425,0,0,1-9.4,86.556,123.041,123.041,0,0,1-109.053,66.6,3.461,3.461,0,0,0,0,6.918Z" transform="translate(538.575 142.361)" fill="#767575"/><path d="M613.226,583.088l-22.269-39.2a3.462,3.462,0,0,0-5.974,3.492l22.269,39.2a3.462,3.462,0,0,0,5.974-3.492Z" transform="translate(342.847 497.115)" fill="#767575"/><path d="M649.675,310.856c-6.664-4.7-13.954-9.608-22.108-9.412-19.735.475-30.375,29.405-50.09,28.388-12.573-.649-20.919-13.421-32.625-18.052-15.241-6.029-34.636,5.762-36.3,22.067l1.957-1.791a472.566,472.566,0,0,0,181.046,8.364Z" transform="translate(176.386 -30.291)" fill="#6c63ff"/><circle cx="19.926" cy="19.926" r="19.926" transform="translate(724.579 1417.568)" fill="#fff"/><circle cx="19.926" cy="19.926" r="19.926" transform="translate(782.367 1417.568)" fill="#fff"/><circle cx="19.926" cy="19.926" r="19.926" transform="translate(840.151 1417.568)" fill="#fff"/><circle cx="15.941" cy="15.941" r="15.941" transform="translate(786.534 1421.553)" fill="#3f3d56"/><path d="M567.053,510.674H545.212l-10.393-84.248h32.234Z" transform="translate(1171.182 933.816)" fill="#ffb6b6"/><path d="M894.887,718.814H879.225l-2.8-14.788-7.161,14.788H827.725a9.338,9.338,0,0,1-5.3-17.024l33.175-22.912V663.929l34.894,2.083Z" transform="translate(854.875 763.517)" fill="#2f2e41"/><path d="M545.9,501.431l-20.565,7.362-38.183-75.81L517.5,422.118Z" transform="translate(1066.798 924.382)" fill="#ffb6b6"/><path d="M857.148,699.916l-13.53,7.892-9.866-11.365,1.266,16.382-35.883,20.933a9.339,9.339,0,0,1-13.161-12.03l17.11-36.507-7.533-12.913,31.19-15.784Z" transform="translate(781.965 747.301)" fill="#2f2e41"/><path d="M1026.188,1029.792h-.263l-4.643-151.4a39.589,39.589,0,0,0-.519-37.411l-.665-1.2,1.723-7.989a50.889,50.889,0,0,0-2.908-30.625l-4.331-141.227c15.474-100.281-57.058-178.8-57.058-178.8H841.473L822.131,575.74,760.207,812.456A31.331,31.331,0,0,0,757.169,841l87.943,173.981-.678.343a5.731,5.731,0,0,0-2.34,7.557c1.149,3.331,4.061,5.347,6.5,4.5l34.281-17.339a5.731,5.731,0,0,0,2.34-7.557c-1.149-3.33-4.061-5.347-6.5-4.5L874.748,1000,848.214,869.211l-.939-26.685,1.934-30.274,57.058-129.609,33.848,167.451L990,1031.477a6.36,6.36,0,0,0,4.29,11.074h31.9a6.38,6.38,0,1,0,0-12.76Z" transform="translate(716.18 363.223)" fill="#2f2e41"/><path d="M920.017,460.135l-3.094,34.578s-1.34,28.709-5.582,35.057c-4.211,6.316-119.11,7.113-119.11,7.113s-7.592-40.926-14.131-76.748Z" transform="translate(766.657 317.236)" fill="#ffb6b6"/><circle cx="59.037" cy="59.037" r="59.037" transform="translate(1570.101 443.849)" fill="#ffb6b6"/><path d="M897.919,396.135l-47.383,5.575a9.669,9.669,0,0,0-8.316,7.538l-7.536,34.481-46.972,55.317s-16.868,31.627-10.542,67.471,9.1,62.478,9.1,62.478S912.28,676.24,916.5,669.915s5.585-35.057,5.585-35.057L938.95,447.2s-18.976-31.627-29.519-31.627C902.628,415.348,903.5,400.033,897.919,396.135Z" transform="translate(761.513 177.084)" fill="#3327f5"/><path d="M543.316,217.71,522.234,373.736l-22.116,1.152Z" transform="translate(1095.194 476.756)" opacity="0.2"/><ellipse cx="12.031" cy="14.437" rx="12.031" ry="14.437" transform="translate(1534.473 788.742)" fill="#6c63ff"/><path d="M833.047,685.274a24.2,24.2,0,0,0-3.177-36.966l39.5-191.155L826.754,470.6,794.977,655.524a24.328,24.328,0,0,0,38.07,29.75Z" transform="translate(795.887 310.707)" fill="#ffb6b6"/><path d="M858.763,405.494s28.4-12.291,45.635,18.654-7.64,138.5-11.131,155.953S841.9,680.763,841.9,680.763l-47.848-9.57Z" transform="translate(801.585 192.303)" fill="#3327f5"/><path d="M822.117,397.157c20.471-14.079,38.5-16.223,53.306-12.23a19.468,19.468,0,0,1,7.787-6.914c11.549-29.1,46.7-46.577,76.859-38.081,30.358,8.551,51.3,42.178,45.592,73.195-3.54,19.226-15.64,35.875-20.506,54.808-9.421,36.652,13.561,78.638,49.513,90.453-34.04,6.835-71.51-13.958-83.722-46.459-5.931-15.786-6.289-33.022-7.043-49.869s-2.112-34.2-9.746-49.237a50.319,50.319,0,0,0-24.081-23.363,19.208,19.208,0,0,1-2.805,17.291c7.983,10,12.328,20.815,12.328,27.292,16.584,30.31-7.131,56.344-37.441,72.928a62.1,62.1,0,0,1-39.675,6.917l-1.268-5.413-1.718,4.876-5.735,16.347q-9.924,4.8-19.677,10.526c2.47-11.6,4.468-23.178,5.843-34.5,1.9-15.408-4.732-38.346-9.52-52.3A82.352,82.352,0,0,1,805.9,426.7v-.4l-4.661,14.972-16.97-7.239C787.427,415.93,784.269,395.374,822.117,397.157Z" transform="translate(780.165 49.293)" fill="#2f2e41"/><path d="M1404.737,684.981a3.8,3.8,0,0,1-3.8,3.8H682.3a3.8,3.8,0,0,1,0-7.592h718.645a3.784,3.784,0,0,1,3.8,3.8Z" transform="translate(548.546 801.305)" fill="#767575"/></g></svg>